#!OML:ASF E:/inclinewalkrobotboard/Project1/Captureday1/Session1/subject1.ASF
:FULLY-SPECIFIED
:DEGREES
101
root 0 0 0 1.1079878775324898 -3.7401697085105163 1.802835353534079
lowerback 11.99529805078807 0.862009923517641 -0.07693620283912489
upperback -4.182546161402116 1.0910350932062878 -0.5396322151402615
thorax -11.29738421180563 0.5003895496680856 -0.7746335183211471
lowerneck -5.922183668996532 1.4701433711810914 4.520604037852852
upperneck 18.040967931001422 2.9154910315567637 -8.266474258299676
head 6.615874714398261 1.0617315334710193 -3.1943475812829787
rclavicle -1.2338708549826331E-15 3.9911481301633186E-16
rhumerus 19.641349360874518 14.047373632882284 -47.80816739878391
rradius 72.07055623865769
rwrist 27.21871451544563
rhand -34.883322071615645 -57.52889019007418
rfingers 7.125020000000043
rthumb -8.02482543456461 -87.30844256821041
lclavicle 1.0735715191869234E-15 -2.7157108096690006E-15
lhumerus 20.599415651512423 -12.313567922022438 45.61704017643206
lradius 69.5348443579272
lwrist -22.20384985512175
lhand -44.756791358585325 -70.15031227777467
lfingers 7.125020000000015
lthumb -17.564599128494606 -41.04369971417985
rfemur -25.19117864130523 -2.162450110302674 16.89646786189854
rtibia 54.198147073109006
rfoot -28.226824176470892 -16.76454211054522
rtoes -17.854860648648174
lfemur -27.44275778378642 2.482337973387394 -18.264947908746063
ltibia 53.661691618628396
lfoot -31.885875469835845 -3.253003228549905
ltoes -19.56365885658647
102
root 0 0 0 1.1079516396954965 -3.7401909230364154 1.8028296978833844
lowerback 11.995320779503482 0.8620097332372259 -0.07692134026653918
upperback -4.182507552442201 1.0910385144851635 -0.5396226069834071
thorax -11.297354398815948 0.5003904863424405 -0.7746328118212044
lowerneck -5.922067563491332 1.4701143454818935 4.520640614383316
upperneck 18.040822752797983 2.9154530361208777 -8.266556896460072
head 6.615808070378986 1.0617147813333112 -3.1943824399054046
rclavicle -1.2350866071947291E-15 3.992098491130645E-16
rhumerus 19.641365295838707 14.047394761012693 -47.808173538992776
rradius 72.07058966663196
rwrist 27.218736806061784
rhand -34.883376763177594 -57.529032192313515
rfingers 7.125020000000043
rthumb -8.024882098180006 -87.30858822084282
lclavicle 1.0716265889629077E-15 -2.7156363011870585E-15
lhumerus 20.59949551157964 -12.313594915122586 45.61698947460609
lradius 69.53488542197181
lwrist -22.203873324735255
lhand -44.756815379642916 -70.15031348466323
lfingers 7.125020000000015
lthumb -17.56461200654581 -41.043697888712686
rfemur -25.19115619264769 -2.1624443345902438 16.896485573625057
rtibia 54.1981234570556
rfoot -28.226906123948076 -16.764580963107306
rtoes -17.854860490865416
lfemur -27.442827352800336 2.482322421681427 -18.26493632252733
ltibia 53.661658278005966
lfoot -31.885987665749038 -3.25292538798001
ltoes -19.56371856206774
103
root 0 0 0 1.1079135655353047 -3.74036224854398 1.8027819349823209
lowerback 11.995075146699605 0.8619732048745034 -0.07693072271745427
upperback -4.182661946068922 1.0909845652750625 -0.5396035695849712
thorax -11.297383689556744 0.5003662217074235 -0.7745943825322212
lowerneck -5.922115764442577 1.470243996714737 4.520560162763042
upperneck 18.041409203864735 2.91565742036418 -8.2663838813257
head 6.616001874749724 1.0618051889778255 -3.1943010813606985
rclavicle -1.250539047070987E-15 4.1770619116759385E-16
rhumerus 19.642054803067627 14.047385970662315 -47.80788230490622
rradius 72.07166835931046
rwrist 27.219673246344822
rhand -34.88493470190837 -57.53255665696017
rfingers 7.125020000000043
rthumb -8.026336942174886 -87.3121739311886
lclavicle 1.0372596467636174E-15 -2.692230555042358E-15
lhumerus 20.59973973651025 -12.312206866831104 45.61962519597951
lradius 69.53455162217318
lwrist -22.20311477875615
lhand -44.75895923186806 -70.16131851474286
lfingers 7.125020000000015
lthumb -17.5665256673414 -41.05524689070698
rfemur -25.190050111027283 -2.162473216809355 16.89561409553898
rtibia 54.196567199367266
rfoot -28.225333585471247 -16.763849187281842
rtoes -17.856335725336404
lfemur -27.441189944858746 2.481694015850602 -18.26403014456399
ltibia 53.6590582888437
lfoot -31.88280406002381 -3.2525837709780547
ltoes -19.567225722517392
104
root 0 0 0 1.108027780902412 -3.740146175201172 1.8028422586783188
lowerback 11.995271959589642 0.8620096926998967 -0.07695242483228606
upperback -4.182588109002052 1.0910308345898518 -0.539642692110718
thorax -11.297415682812929 0.5003882389977594 -0.7746341851080518
lowerneck -5.922303122484273 1.470173744639217 4.520564286682798
upperneck 18.041122819986576 2.9155306817478035 -8.266385373594904
head 6.615945140424477 1.0617491337659875 -3.194310199984016
rclavicle -1.2284164528157238E-15 3.966711961733729E-16
rhumerus 19.641562080765773 14.047555613640593 -47.80807536073838
rradius 72.0706947108665
rwrist 27.218726828405245
rhand -34.88332439850939 -57.528938926652486
rfingers 7.125020000000043
rthumb -8.024838428380697 -87.30846379123855
lclavicle 1.0816555997089345E-15 -2.7189013879938725E-15
lhumerus 20.599165840376887 -12.313188376609402 45.61720300699679
lradius 69.53474486670589
lwrist -22.203905200538824
lhand -44.75687528756675 -70.15149996702095
lfingers 7.125020000000015
lthumb -17.564697463816874 -41.04487955111179
rfemur -25.190921238244687 -2.1624289255631264 16.896490218003752
rtibia 54.19822519163057
rfoot -28.226717441379627 -16.764422383403105
rtoes -17.855130796266955
lfemur -27.442728205026796 2.482262992433551 -18.264880937532723
ltibia 53.661444879780454
lfoot -31.885719166793095 -3.253064634697936
ltoes -19.56397995023587
105
root 0 0 0 1.1079922487647749 -3.740164380488848 1.8028370212716114
lowerback 11.995299031469067 0.8620103234169229 -0.07693809677926877
upperback -4.182548089491253 1.091035243726442 -0.5396335790368538
thorax -11.297386972786141 0.500389676048962 -0.7746339567350691
lowerneck -5.922194804659304 1.4701446970541763 4.520601395284036
upperneck 18.04097483299692 2.915492252997061 -8.266468013828149
head 6.615878885453985 1.061732084846355 -3.194345063355147
rclavicle -1.2339128953378173E-15 3.991238322097233E-16
rhumerus 19.64133751367112 14.047362311759903 -47.808174708218885
rradius 72.07055010742617
rwrist 27.218716025583994
rhand -34.88334207788772 -57.5289149682326
rfingers 7.125020000000043
rthumb -8.024844966186004 -87.30846815354197
lclavicle 1.0735083432804513E-15 -2.7157062404903216E-15
lhumerus 20.59941102249045 -12.313555444061775 45.6170525921217
lradius 69.5348370781938
lwrist -22.20384825656731
lhand -44.75679927512402 -70.15035981123849
lfingers 7.125020000000015
lthumb -17.56460651131496 -41.04374766331609
rfemur -25.191180048741124 -2.1624503534601263 16.896467083295565
rtibia 54.19814577960924
rfoot -28.226822009524966 -16.764542644892934
rtoes -17.85486042820222
lfemur -27.442763490215114 2.482334355320936 -18.264949120119248
ltibia 53.66169210289121
lfoot -31.885874831469476 -3.2530059560895777
ltoes -19.56363671735487
